<?xml version="1.0" encoding="utf-8"?>
<svg xmlns="http://www.w3.org/2000/svg" data-name="Layer 1" id="Layer_1" viewBox="26.16 190.31 446.1 129.23">
  <defs>
    <style>
      .cls-1 {
        fill: #00b700;
      }

      .cls-1, .cls-2 {
        stroke-width: 0px;
      }

      .cls-2 {
        fill: #01cc00;
      }
    </style>
  </defs>
  <g>
    <rect class="cls-1" height="22.7" width="14.37" x="457.89" y="226.05"/>
    <path class="cls-2" d="M472.25,226.05l-47.59,53.75c-1.49,1.49-3.92,1.49-5.41,0l-4-4c-.24-.24-.45-.51-.61-.8l-15.35-15.35c-2.78-2.78-2.78-7.28,0-10.06l.36-.36c2.78-2.78,7.29-2.78,10.07,0l13.21,13.21,35.03-36.35,14.29-.02h0v-.02Z"/>
    <path class="cls-2" d="M379.68,274.57c-.35-.2-.85-2-.92-2.24.24.75.55,1.49.92,2.24Z"/>
    <path class="cls-2" d="M472.26,271.85c0,.07,0,.14-.02.21h.02c-.97,14.37-21.43,28.49-21.43,28.49l-32.63,18.99-24.84-13.64c-20.05-9.54-26.56-25.29-28.36-31.23,0-.01,0-.02-.01-.03-.44-1.47-.6-2.33-.6-2.33h0v-59.37c0-1.57.81-2.96,2.03-3.76.25-.22.55-.4.87-.53l43.51-18.09c.52-.22,1.06-.29,1.58-.23.44-.02.9.06,1.33.25l30.59,13.65c1.84.82,2.67,2.98,1.85,4.83l-2.3,5.16c-.82,1.84-2.98,2.67-4.83,1.85l-25.07-11.18-35.2,14.63v52.81h0v.03c.07.24.57,2.04.92,2.24,0,.01.01.02.02.03,7.23,14.49,37.77,27.9,37.77,27.9,39.44-13.15,40.42-33.84,40.42-33.84v-20.45h14.37v23.65h0v-.04Z"/>
    <path class="cls-2" d="M364.39,272.31s.16.86.6,2.33c-.37-1.09-.67-2.11-.6-2.33Z"/>
    <polygon class="cls-2" points="364.4 272.31 364.39 272.31 364.4 271.81 364.4 272.31"/>
    <path class="cls-2" d="M379.75,274.59h-.05l-.02-.02s.04.02.06.02h0Z"/>
  </g>
  <g>
    <path class="cls-2" d="M104.49,209.15v14.33h14.33v-14.33h-14.33ZM85.4,209.15v14.33h14.31v-14.33h-14.31Z"/>
    <path class="cls-2" d="M149.42,295.4v14.33h14.31v-14.33h-14.31ZM128.97,295.4v14.33h14.33v-14.33h-14.33Z"/>
    <path class="cls-2" d="M222.3,209.15v14.33h14.31v-14.33h-14.31ZM203.22,209.15v14.33h14.31v-14.33h-14.31Z"/>
    <path class="cls-2" d="M218.21,233.7c-12.45-.08-20.48,4.84-24.07,14.8-2.9,10.4-.61,19.34,6.88,26.79h-39.47v-41.59h-13.91v41.59h-26.86v-41.59h-19.02c-12.45-.08-20.48,4.84-24.07,14.8-2.9,10.4-.61,19.34,6.88,26.79H26.16v12.96h154.01v.06l57.06-.06v-54.55h-19.02ZM106.33,275.29c-8.18-4.13-13.21-10.32-15.07-18.54.5-6.33,4.97-9.15,13.43-8.46h1.63v27ZM222.78,275.29c-8.18-4.13-13.21-10.32-15.07-18.54.5-6.33,4.97-9.15,13.43-8.46h1.63v27Z"/>
    <path class="cls-2" d="M321.35,209.15v14.33h14.33v-14.33h-14.33ZM302.27,209.15v14.33h14.33v-14.33h-14.33Z"/>
    <path class="cls-2" d="M335.07,233.7v54.55h-90.74v-12.96h37.84v-2.74c-.54-17.03-9.75-25.15-27.62-24.34v-14.72c.96-.06,1.91-.07,2.86-.07.87-.04,1.73-.07,2.6-.07,6.81,0,13.14,1.61,18.95,4.84,6.51,3.63,11.18,9.09,14.05,16.35,2.86,7.27,4.12,14.19,3.76,20.73h24.41v-41.59h13.91Z"/>
  </g>
</svg>